<svg viewBox="0 0 64 64" fill="none" xmlns="http://www.w3.org/2000/svg">
  <defs>
    <linearGradient id="bgGradient" x1="0%" y1="0%" x2="100%" y2="100%">
      <stop offset="0%" stop-color="#10b981"/>
      <stop offset="50%" stop-color="#34d399"/>
      <stop offset="100%" stop-color="#fbbf24"/>
    </linearGradient>
    <linearGradient id="hairGrad" x1="0%" y1="0%" x2="100%" y2="100%">
      <stop offset="0%" stop-color="#ffffff"/>
      <stop offset="100%" stop-color="#ecfdf5"/>
    </linearGradient>
    <linearGradient id="leafGrad" x1="0%" y1="0%" x2="100%" y2="100%">
      <stop offset="0%" stop-color="#047857"/>
      <stop offset="100%" stop-color="#059669"/>
    </linearGradient>
  </defs>
  
  <rect width="64" height="64" rx="14" fill="url(#bgGradient)"/>
  
  <g transform="translate(8, 6)">
    <path d="M8 14C8 14 4 26 8 38C12 50 20 52 26 50" stroke="url(#hairGrad)" stroke-width="4" stroke-linecap="round" fill="none"/>
    <path d="M18 8C18 8 12 24 16 38C20 52 26 54 30 52" stroke="url(#hairGrad)" stroke-width="5" stroke-linecap="round" fill="none"/>
    <path d="M28 4C28 4 22 22 26 38C30 54 36 56 40 52" stroke="url(#hairGrad)" stroke-width="5.5" stroke-linecap="round" fill="none"/>
    <path d="M38 8C38 8 34 26 38 40C42 54 46 52 48 48" stroke="url(#hairGrad)" stroke-width="4.5" stroke-linecap="round" fill="none"/>
  </g>
  
  <path d="M38 26C38 26 46 20 54 24C62 28 58 40 52 46C46 52 38 50 36 46C34 42 38 32 38 26Z" fill="url(#leafGrad)"/>
  <path d="M48 28C46 36 42 44 38 46" stroke="#034e3a" stroke-width="2" stroke-linecap="round" fill="none"/>
  
  <circle cx="14" cy="10" r="3" fill="#fcd34d"/>
  <circle cx="52" cy="8" r="2.5" fill="#fcd34d"/>
</svg>
